#!OML:ASF E:\Steps\Project 1\Capture day 1\Session 2\Subject.ASF
:FULLY-SPECIFIED
:DEGREES
150
root 9.0366 16.2583 31.7565 -159.373 -2.91338 179.37
lowerback -25.628 -1.98843 -5.17407
upperback -1.08847 -1.55418 0.0844805
thorax 13.2833 -1.21838 2.46758
lowerneck -5.85922 -1.7297 1.71982
upperneck 12.8835 -2.65044 -1.76945
head 4.77926 -1.46936 -0.993549
rclavicle 2.03754e-015 -1.03368e-014
rhumerus -31.0911 -12.725 -83.0225
rradius 31.6455
rwrist -0.505939
rhand -6.35435 -55.4893
rfingers 7.12502
rthumb 19.4917 -84.5323
lclavicle 2.03754e-015 -1.03368e-014
lhumerus -26.6967 0.395811 85.0083
lradius 22.666
lwrist -4.92323
lhand -20.2163 -11.6459
lfingers 7.12502
lthumb 6.13097 18.2454
rfemur -22.0042 8.60521 20.2991
rtibia 12.1038
rfoot -20.8669 -10.4456
rtoes -23.4422
lfemur -24.4799 -9.99813 -19.3044
ltibia 13.9605
lfoot -9.32035 1.87339
ltoes -38.7138
151
root 9.04588 16.2618 31.7544 -159.381 -2.78205 179.409
lowerback -25.6139 -1.96088 -5.22105
upperback -1.09606 -1.50447 0.0651841
thorax 13.2628 -1.1982 2.49098
lowerneck -5.80146 -1.74916 1.80988
upperneck 12.8949 -2.68314 -1.81742
head 4.77048 -1.48545 -1.02438
rclavicle -2.03754e-015 -1.19271e-015
rhumerus -31.2033 -13.0565 -82.9408
rradius 31.2929
rwrist -0.203498
rhand -6.22851 -54.2038
rfingers 7.12502
rthumb 19.6127 -83.2345
lclavicle -2.03754e-015 -1.19271e-015
lhumerus -26.6788 0.911233 84.6082
lradius 22.2747
lwrist -6.60823
lhand -19.2009 -10.2637
lfingers 7.12502
lthumb 7.11118 19.5969
rfemur -22.4226 9.03678 20.2715
rtibia 12.8812
rfoot -21.3863 -10.6493
rtoes -22.658
lfemur -24.5342 -9.79061 -19.2089
ltibia 14.0311
lfoot -9.36172 1.83943
ltoes -40.3723
152
root 9.04351 16.2632 31.754 -159.333 -2.78543 179.35
lowerback -25.6357 -1.95053 -5.21902
upperback -1.11371 -1.4864 0.000462778
thorax 13.2503 -1.18849 2.42169
lowerneck -5.69245 -1.76069 1.86284
upperneck 12.9038 -2.70384 -1.85339
head 4.75319 -1.49739 -1.04409
rclavicle 3.62782e-015 1.35174e-014
rhumerus -31.296 -13.3767 -82.8619
rradius 30.9377
rwrist 0.0662066
rhand -6.69384 -54.5612
rfingers 7.12502
rthumb 19.1653 -83.6368
lclavicle 3.62782e-015 1.35174e-014
lhumerus -26.6998 0.495187 84.5425
lradius 21.6938
lwrist -6.9112
lhand -18.9163 -10.1734
lfingers 7.12502
lthumb 7.38591 19.6776
rfemur -22.5014 8.98764 20.1997
rtibia 12.9601
rfoot -21.4651 -10.6411
rtoes -22.6544
lfemur -24.5664 -9.86273 -19.2727
ltibia 14.0089
lfoot -9.43275 1.82316
ltoes -39.2433
153
root 9.0426 16.2637 31.7514 -159.272 -2.74779 179.237
lowerback -25.6867 -1.98626 -5.38986
upperback -1.11173 -1.48361 0.0140453
thorax 13.285 -1.19991 2.53544
lowerneck -5.81541 -1.75368 1.85611
upperneck 12.9314 -2.68466 -1.90949
head 4.78199 -1.49044 -1.06108
rclavicle 1.14798e-014 1.74931e-014
rhumerus -31.3575 -13.4985 -82.6786
rradius 30.6531
rwrist 0.135724
rhand -6.50768 -54.6829
rfingers 7.12502
rthumb 19.3443 -83.7407
lclavicle 1.14798e-014 1.74931e-014
lhumerus -26.7329 1.08407 84.3418
lradius 21.2549
lwrist -7.09072
lhand -18.3087 -9.35363
lfingers 7.12502
lthumb 7.97239 20.476
rfemur -22.3447 9.16792 20.0337
rtibia 12.569
rfoot -21.196 -10.8094
rtoes -22.4767
lfemur -24.5897 -10.0019 -19.3704
ltibia 13.99
lfoot -9.5541 1.84683
ltoes -38.5944
154
root 9.04192 16.2675 31.7447 -159.384 -2.62559 179.208
lowerback -25.6687 -1.93934 -5.36383
upperback -1.04841 -1.41193 -0.0589768
thorax 13.3408 -1.16217 2.46292
lowerneck -5.78945 -1.77268 1.88265
upperneck 12.9448 -2.71199 -1.93366
head 4.78045 -1.50488 -1.07428
rclavicle 4.96962e-015 -1.98785e-015
rhumerus -31.4794 -13.6267 -82.6568
rradius 30.4367
rwrist 0.181926
rhand -6.34884 -53.8263
rfingers 7.12502
rthumb 19.497 -82.8688
lclavicle 4.96962e-015 -1.98785e-015
lhumerus -26.9021 2.19105 83.8815
lradius 20.8714
lwrist -7.61279
lhand -18.3663 -9.77024
lfingers 7.12502
lthumb 7.91684 20.0615
rfemur -21.9906 9.50296 19.9531
rtibia 12.1496
rfoot -21.0015 -10.8615
rtoes -21.8874
lfemur -24.3646 -10.0211 -19.433
ltibia 13.9007
lfoot -9.56808 1.93413
ltoes -38.0162
155
root 9.04492 16.2661 31.7508 -159.211 -2.68718 179.172
lowerback -25.6794 -1.96611 -5.44253
upperback -1.15247 -1.44204 -0.051407
thorax 13.2285 -1.18285 2.50606
lowerneck -5.75181 -1.78806 1.88948
upperneck 12.9691 -2.73276 -1.96323
head 4.7806 -1.51789 -1.08557
rclavicle -3.23025e-015 6.75868e-015
rhumerus -31.7128 -13.7282 -82.5563
rradius 30.2518
rwrist 0.253597
rhand -6.69158 -52.9402
rfingers 7.12502
rthumb 19.1674 -82.0157
lclavicle -3.23025e-015 6.75868e-015
lhumerus -27.1745 2.54534 83.7908
lradius 20.2902
lwrist -6.46208
lhand -19.6991 -10.7161
lfingers 7.12502
lthumb 6.63028 19.1601
rfemur -22.0475 9.76844 19.8504
rtibia 11.8502
rfoot -20.8139 -11.2194
rtoes -22.694
lfemur -24.6601 -9.95994 -19.4301
ltibia 14.0243
lfoot -9.41888 1.86471
ltoes -39.2347
